<?xml version="1.0"?>
<svg xmlns="http://www.w3.org/2000/svg" xmlns:xlink="http://www.w3.org/1999/xlink" xmlns:svgjs="http://svgjs.com/svgjs" version="1.1" width="512" height="512" x="0" y="0" viewBox="0 0 512.007 512.007" style="enable-background:new 0 0 512 512" xml:space="preserve" class=""><g>
<g xmlns="http://www.w3.org/2000/svg">
	<g>
		<path d="M206.433,342l-88.131-203.016c-2.492-5.75-8.163-9.469-14.426-9.469h-0.005c-6.264,0-11.929,3.714-14.431,9.458    L1.307,341.464c-2.581,5.928-1.269,12.837,3.305,17.406l13.115,13.115c23.019,23.019,53.519,35.698,85.886,35.698    c32.262,0,62.662-12.595,85.639-35.473l13.419-12.386C207.587,355.287,209.098,348.137,206.433,342z M167.686,349.297    c-0.152,0.142-0.304,0.289-0.451,0.435c-17.065,17.07-39.664,26.476-63.622,26.476c-23.958,0-46.552-9.406-63.622-26.476    l-5.534-5.54l69.403-159.465l69.262,159.554L167.686,349.297z" fill="#f49918" data-original="#000000" style="" class=""/>
	</g>
</g>
<g xmlns="http://www.w3.org/2000/svg">
	<g>
		<rect x="15.744" y="332.017" width="175.738" height="31.475" fill="#f49918" data-original="#000000" style="" class=""/>
	</g>
</g>
<g xmlns="http://www.w3.org/2000/svg">
	<g>
		<path d="M510.742,389.286l-88.131-206.159c-2.481-5.797-8.173-9.553-14.473-9.553c-0.005,0-0.01,0-0.016,0    c-6.306,0.01-12.003,3.782-14.468,9.584l-87.607,206.164c-2.508,5.902-1.18,12.742,3.357,17.28l13.115,13.115    c23.019,23.019,53.513,35.693,85.881,35.693s62.867-12.674,85.881-35.693l13.115-13.115    C511.944,402.06,513.266,395.203,510.742,389.286z M472.022,397.464c-17.07,17.07-39.669,26.471-63.628,26.471    c-23.953,0-46.552-9.401-63.628-26.471l-5.603-5.603l69.015-162.408l69.43,162.424L472.022,397.464z" fill="#f49918" data-original="#000000" style="" class=""/>
	</g>
</g>
<g xmlns="http://www.w3.org/2000/svg">
	<g>
		<rect x="320.531" y="379.754" width="175.738" height="31.475" fill="#f49918" data-original="#000000" style="" class=""/>
	</g>
</g>
<g xmlns="http://www.w3.org/2000/svg">
	<g>
		<path d="M258.629,118.498c-26.324,0-47.738,21.419-47.738,47.738s21.414,47.738,47.738,47.738    c26.324,0,47.743-21.419,47.743-47.738S284.959,118.498,258.629,118.498z M258.629,182.498c-8.965,0-16.262-7.297-16.262-16.262    c0-8.965,7.297-16.262,16.262-16.262c8.971,0,16.268,7.292,16.268,16.262C274.897,175.201,267.6,182.498,258.629,182.498z" fill="#f49918" data-original="#000000" style="" class=""/>
	</g>
</g>
<g xmlns="http://www.w3.org/2000/svg">
	<g>
		<path d="M258.629,56.596c-8.692,0-15.738,7.045-15.738,15.738v60.852c0,8.693,7.045,15.738,15.738,15.738    c8.693,0,15.738-7.045,15.738-15.738V72.334C274.367,63.642,267.322,56.596,258.629,56.596z" fill="#f49918" data-original="#000000" style="" class=""/>
	</g>
</g>
<g xmlns="http://www.w3.org/2000/svg">
	<g>
		<path d="M410.435,173.742l-117.503-17.311c-8.593-1.285-16.598,4.679-17.862,13.277c-1.264,8.598,4.674,16.598,13.272,17.862    l117.503,17.311c0.776,0.115,1.548,0.173,2.313,0.173c7.675,0,14.395-5.624,15.549-13.451    C424.972,183.007,419.033,175.007,410.435,173.742z" fill="#f49918" data-original="#000000" style="" class=""/>
	</g>
</g>
<g xmlns="http://www.w3.org/2000/svg">
	<g>
		<path d="M228.89,147.508l-122.754-17.836c-8.582-1.28-16.588,4.711-17.836,13.314s4.711,16.588,13.314,17.836l122.754,17.836    c0.766,0.115,1.527,0.168,2.282,0.168c7.69,0,14.416-5.645,15.554-13.482C243.453,156.741,237.494,148.756,228.89,147.508z" fill="#f49918" data-original="#000000" style="" class=""/>
	</g>
</g>
<g xmlns="http://www.w3.org/2000/svg">
</g>
<g xmlns="http://www.w3.org/2000/svg">
</g>
<g xmlns="http://www.w3.org/2000/svg">
</g>
<g xmlns="http://www.w3.org/2000/svg">
</g>
<g xmlns="http://www.w3.org/2000/svg">
</g>
<g xmlns="http://www.w3.org/2000/svg">
</g>
<g xmlns="http://www.w3.org/2000/svg">
</g>
<g xmlns="http://www.w3.org/2000/svg">
</g>
<g xmlns="http://www.w3.org/2000/svg">
</g>
<g xmlns="http://www.w3.org/2000/svg">
</g>
<g xmlns="http://www.w3.org/2000/svg">
</g>
<g xmlns="http://www.w3.org/2000/svg">
</g>
<g xmlns="http://www.w3.org/2000/svg">
</g>
<g xmlns="http://www.w3.org/2000/svg">
</g>
<g xmlns="http://www.w3.org/2000/svg">
</g>
</g></svg>
