<?xml version="1.0"?>
<svg xmlns="http://www.w3.org/2000/svg" xmlns:xlink="http://www.w3.org/1999/xlink" xmlns:svgjs="http://svgjs.com/svgjs" version="1.1" width="512" height="512" x="0" y="0" viewBox="0 0 512 512" style="enable-background:new 0 0 512 512" xml:space="preserve" class=""><g>
<g xmlns="http://www.w3.org/2000/svg">
	<g>
		<path d="M458.809,178.631H53.191c-9.426,0-17.067,7.64-17.067,17.067v120.036c0,9.427,7.64,17.067,17.067,17.067h405.618    c9.427,0,17.067-7.64,17.067-17.067V195.698C475.876,186.271,468.235,178.631,458.809,178.631z M441.742,298.667H70.258v-85.902    h371.484V298.667z" fill="#28a746" data-original="#000000" style="" class=""/>
	</g>
</g>
<g xmlns="http://www.w3.org/2000/svg">
	<g>
		<path d="M110.649,230.969c-9.427,0-17.067,7.64-17.067,17.067v15.929c0,9.426,7.64,17.067,17.067,17.067    c9.426,0,17.067-7.635,17.067-17.067v-15.929C127.716,238.609,120.075,230.969,110.649,230.969z" fill="#28a746" data-original="#000000" style="" class=""/>
	</g>
</g>
<g xmlns="http://www.w3.org/2000/svg">
	<g>
		<path d="M164.124,230.969c-9.427,0-17.067,7.64-17.067,17.067v15.929c0,9.426,7.64,17.067,17.067,17.067    s17.067-7.635,17.067-17.067v-15.929C181.191,238.609,173.551,230.969,164.124,230.969z" fill="#28a746" data-original="#000000" style="" class=""/>
	</g>
</g>
<g xmlns="http://www.w3.org/2000/svg">
	<g>
		<path d="M218.169,230.969c-9.427,0-17.067,7.64-17.067,17.067v15.929c0,9.426,7.64,17.067,17.067,17.067    s17.067-7.635,17.067-17.067v-15.929C235.236,238.609,227.595,230.969,218.169,230.969z" fill="#28a746" data-original="#000000" style="" class=""/>
	</g>
</g>
<g xmlns="http://www.w3.org/2000/svg">
	<g>
		<path d="M403.058,238.933h-90.453c-9.427,0-17.067,7.64-17.067,17.067s7.64,17.067,17.067,17.067h90.453    c9.427,0,17.067-7.64,17.067-17.067S412.484,238.933,403.058,238.933z" fill="#28a746" data-original="#000000" style="" class=""/>
	</g>
</g>
<g xmlns="http://www.w3.org/2000/svg">
	<g>
		<path d="M458.809,0H53.191c-9.426,0-17.067,7.64-17.067,17.067v120.036c0,9.426,7.64,17.067,17.067,17.067h405.618    c9.427,0,17.067-7.64,17.067-17.067V17.067C475.876,7.64,468.235,0,458.809,0z M441.742,120.036H70.258V34.133h371.484V120.036z" fill="#28a746" data-original="#000000" style="" class=""/>
	</g>
</g>
<g xmlns="http://www.w3.org/2000/svg">
	<g>
		<path d="M110.649,51.769c-9.427,0-17.067,7.64-17.067,17.067v16.498c0,9.427,7.64,17.067,17.067,17.067    c9.426,0,17.067-7.64,17.067-17.067V68.836C127.716,59.409,120.075,51.769,110.649,51.769z" fill="#28a746" data-original="#000000" style="" class=""/>
	</g>
</g>
<g xmlns="http://www.w3.org/2000/svg">
	<g>
		<path d="M164.124,51.769c-9.427,0-17.067,7.64-17.067,17.067v16.498c0,9.427,7.64,17.067,17.067,17.067s17.067-7.64,17.067-17.067    V68.836C181.191,59.409,173.551,51.769,164.124,51.769z" fill="#28a746" data-original="#000000" style="" class=""/>
	</g>
</g>
<g xmlns="http://www.w3.org/2000/svg">
	<g>
		<path d="M218.169,51.769c-9.427,0-17.067,7.64-17.067,17.067v16.498c0,9.427,7.64,17.067,17.067,17.067s17.067-7.64,17.067-17.067    V68.836C235.236,59.409,227.595,51.769,218.169,51.769z" fill="#28a746" data-original="#000000" style="" class=""/>
	</g>
</g>
<g xmlns="http://www.w3.org/2000/svg">
	<g>
		<path d="M403.058,60.302h-90.453c-9.427,0-17.067,7.64-17.067,17.067s7.64,17.067,17.067,17.067h90.453    c9.427,0,17.067-7.64,17.067-17.067S412.484,60.302,403.058,60.302z" fill="#28a746" data-original="#000000" style="" class=""/>
	</g>
</g>
<g xmlns="http://www.w3.org/2000/svg">
	<g>
		<path d="M458.809,357.831H53.191c-9.426,0-17.067,7.64-17.067,17.067v120.036c0,9.426,7.64,17.067,17.067,17.067h405.618    c9.427,0,17.067-7.64,17.067-17.067V374.898C475.876,365.471,468.235,357.831,458.809,357.831z M441.742,477.867H70.258v-85.902    h371.484V477.867z" fill="#28a746" data-original="#000000" style="" class=""/>
	</g>
</g>
<g xmlns="http://www.w3.org/2000/svg">
	<g>
		<path d="M110.649,409.6c-9.427,0-17.067,7.64-17.067,17.067v16.498c0,9.426,7.64,17.067,17.067,17.067    c9.426,0,17.067-7.635,17.067-17.067v-16.498C127.716,417.24,120.075,409.6,110.649,409.6z" fill="#28a746" data-original="#000000" style="" class=""/>
	</g>
</g>
<g xmlns="http://www.w3.org/2000/svg">
	<g>
		<path d="M164.124,409.6c-9.427,0-17.067,7.64-17.067,17.067v16.498c0,9.426,7.64,17.067,17.067,17.067s17.067-7.635,17.067-17.067    v-16.498C181.191,417.24,173.551,409.6,164.124,409.6z" fill="#28a746" data-original="#000000" style="" class=""/>
	</g>
</g>
<g xmlns="http://www.w3.org/2000/svg">
	<g>
		<path d="M218.169,409.6c-9.427,0-17.067,7.64-17.067,17.067v16.498c0,9.426,7.64,17.067,17.067,17.067s17.067-7.635,17.067-17.067    v-16.498C235.236,417.24,227.595,409.6,218.169,409.6z" fill="#28a746" data-original="#000000" style="" class=""/>
	</g>
</g>
<g xmlns="http://www.w3.org/2000/svg">
	<g>
		<path d="M403.058,417.564h-90.453c-9.427,0-17.067,7.64-17.067,17.067c0,9.427,7.64,17.067,17.067,17.067h90.453    c9.427,0,17.067-7.64,17.067-17.067C420.124,425.205,412.484,417.564,403.058,417.564z" fill="#28a746" data-original="#000000" style="" class=""/>
	</g>
</g>
<g xmlns="http://www.w3.org/2000/svg">
	<g>
		<path d="M421.262,122.311c-9.427,0-17.067,7.64-17.067,17.067v54.044c0,9.427,7.64,17.067,17.067,17.067    c9.432,0,17.067-7.64,17.067-17.067v-54.044C438.329,129.951,430.689,122.311,421.262,122.311z" fill="#28a746" data-original="#000000" style="" class=""/>
	</g>
</g>
<g xmlns="http://www.w3.org/2000/svg">
	<g>
		<path d="M91.307,122.311c-9.426,0-17.067,7.64-17.067,17.067v54.044c0,9.427,7.64,17.067,17.067,17.067    c9.427,0,17.067-7.64,17.067-17.067v-54.044C108.373,129.951,100.733,122.311,91.307,122.311z" fill="#28a746" data-original="#000000" style="" class=""/>
	</g>
</g>
<g xmlns="http://www.w3.org/2000/svg">
	<g>
		<path d="M421.262,298.667c-9.427,0-17.067,7.64-17.067,17.067v59.733c0,9.426,7.64,17.067,17.067,17.067    c9.432,0,17.067-7.64,17.067-17.067v-59.733C438.329,306.307,430.689,298.667,421.262,298.667z" fill="#28a746" data-original="#000000" style="" class=""/>
	</g>
</g>
<g xmlns="http://www.w3.org/2000/svg">
	<g>
		<path d="M91.307,298.667c-9.426,0-17.067,7.64-17.067,17.067v59.733c0,9.426,7.64,17.067,17.067,17.067    c9.427,0,17.067-7.64,17.067-17.067v-59.733C108.373,306.307,100.733,298.667,91.307,298.667z" fill="#28a746" data-original="#000000" style="" class=""/>
	</g>
</g>
<g xmlns="http://www.w3.org/2000/svg">
</g>
<g xmlns="http://www.w3.org/2000/svg">
</g>
<g xmlns="http://www.w3.org/2000/svg">
</g>
<g xmlns="http://www.w3.org/2000/svg">
</g>
<g xmlns="http://www.w3.org/2000/svg">
</g>
<g xmlns="http://www.w3.org/2000/svg">
</g>
<g xmlns="http://www.w3.org/2000/svg">
</g>
<g xmlns="http://www.w3.org/2000/svg">
</g>
<g xmlns="http://www.w3.org/2000/svg">
</g>
<g xmlns="http://www.w3.org/2000/svg">
</g>
<g xmlns="http://www.w3.org/2000/svg">
</g>
<g xmlns="http://www.w3.org/2000/svg">
</g>
<g xmlns="http://www.w3.org/2000/svg">
</g>
<g xmlns="http://www.w3.org/2000/svg">
</g>
<g xmlns="http://www.w3.org/2000/svg">
</g>
</g></svg>
