<?xml version="1.0"?>
<svg xmlns="http://www.w3.org/2000/svg" xmlns:xlink="http://www.w3.org/1999/xlink" xmlns:svgjs="http://svgjs.com/svgjs" version="1.1" width="512" height="512" x="0" y="0" viewBox="0 0 512 512" style="enable-background:new 0 0 512 512" xml:space="preserve"><g><g xmlns="http://www.w3.org/2000/svg"><path d="m135 150h142c8.284 0 15-6.716 15-15s-6.716-15-15-15h-142c-8.284 0-15 6.716-15 15s6.716 15 15 15z" fill="#28a746" data-original="#000000" style=""/><path d="m498.824 353.188-62.923-62.924c3.944-11.027 6.099-22.898 6.099-35.264 0-28.543-11.454-54.458-30-73.404v-86.596c0-30.327-24.673-55-55-55h-65v-22c0-9.925-8.075-18-18-18h-136c-9.925 0-18 8.075-18 18v22h-65c-30.327 0-55 24.673-55 55v362c0 30.327 24.673 55 55 55h302c30.327 0 55-24.673 55-55v-63.357l23.177 23.177c8.5 8.5 19.8 13.18 31.82 13.18s23.32-4.681 31.819-13.18 13.181-19.796 13.184-31.812c.003-12.02-4.676-23.32-13.176-31.82zm-146.824-283.188h5c13.785 0 25 11.215 25 25v65.145c-9.329-4.444-19.412-7.548-30-9.069zm-202-40h112v30h-112zm-60 40h30v5c0 8.284 6.716 15 15 15h142c8.284 0 15-6.716 15-15v-5h30v81.076c-22.568 3.242-42.838 13.687-58.404 28.924h-128.596c-8.284 0-15 6.716-15 15s6.716 15 15 15h107.145c-4.444 9.329-7.548 19.412-9.069 30h-98.076c-8.284 0-15 6.716-15 15s6.716 15 15 15h98.076c1.521 10.588 4.625 20.671 9.069 30h-47.145c-8.284 0-15 6.716-15 15s6.716 15 15 15h68.596c15.565 15.237 35.836 25.681 58.404 28.924v63.076h-152v-65c0-8.284-6.716-15-15-15h-65zm50 302v28.787l-28.787-28.787zm-50 21.213 28.787 28.787h-28.787zm292 63.787c0 13.785-11.215 25-25 25h-302c-13.785 0-25-11.215-25-25v-362c0-13.785 11.215-25 25-25h5v367c0 8.284 6.716 15 15 15h262c8.284 0 15-6.716 15-15v-78.076c6.998-1.005 13.775-2.703 20.26-5.021l9.74 9.74zm-45-127c-41.355 0-75-33.645-75-75s33.645-75 75-75 75 33.645 75 75-33.645 75-75 75zm140.603 65.606c-2.833 2.833-6.6 4.393-10.606 4.393s-7.773-1.56-10.606-4.393l-56.543-56.543c8.039-6.025 15.188-13.174 21.214-21.213l56.55 56.551c2.832 2.832 4.391 6.595 4.389 10.598-.002 4.006-1.563 7.772-4.398 10.607z" fill="#28a746" data-original="#000000" style=""/></g></g></svg>
