<svg height="512pt" viewBox="0 -21 512 512" width="512pt" xmlns="http://www.w3.org/2000/svg"><path d="m366 440h-80c-8.285156 0-15-6.714844-15-15s6.714844-15 15-15h80c8.285156 0 15 6.714844 15 15s-6.714844 15-15 15zm0 0" fill="#46465a"/><path d="m226 440h-80c-8.285156 0-15-6.714844-15-15s6.714844-15 15-15h80c8.285156 0 15 6.714844 15 15s-6.714844 15-15 15zm0 0" fill="#5a5a6e"/><path d="m497 440h-71c-8.285156 0-15-6.714844-15-15s6.714844-15 15-15h71c8.285156 0 15 6.714844 15 15s-6.714844 15-15 15zm0 0" fill="#46465a"/><path d="m86 440h-71c-8.285156 0-15-6.714844-15-15s6.714844-15 15-15h71c8.285156 0 15 6.714844 15 15s-6.714844 15-15 15zm0 0" fill="#5a5a6e"/><path d="m256 410c-8.285156 0-15-6.714844-15-15v-80c0-8.285156 6.714844-15 15-15s15 6.714844 15 15v80c0 8.285156-6.714844 15-15 15zm0 0" fill="#5a5a6e"/><path d="m271 395v-80c0-8.285156-6.714844-15-15-15v110c8.285156 0 15-6.714844 15-15zm0 0" fill="#46465a"/><path d="m406 330h-320c-46.867188 0-85-38.132812-85-85 0-38.457031 25.949219-71.445312 61.652344-81.65625-1.097656-6.074219-1.652344-12.203125-1.652344-18.34375 0-57.898438 47.101562-105 105-105 14.1875 0 28.222656 2.917969 41.253906 8.519531 23.589844-30.613281 59.585938-48.519531 98.746094-48.519531 68.261719 0 123.917969 54.996094 124.984375 123.007812 20.234375 4.945313 38.636719 15.847657 52.832031 31.507813 17.53125 19.335937 27.183594 44.367187 27.183594 70.484375 0 57.898438-47.101562 105-105 105zm0 0" fill="#e6f0f0"/><path d="m430.984375 123.007812c-1.066406-68.011718-56.722656-123.007812-124.984375-123.007812-17.585938 0-34.527344 3.621094-50 10.371094v319.628906h150c57.898438 0 105-47.101562 105-105 0-26.117188-9.652344-51.148438-27.183594-70.484375-14.195312-15.660156-32.597656-26.5625-52.832031-31.507813zm0 0" fill="#cdd7d7"/><path d="m256 470c-24.8125 0-45-20.1875-45-45s20.1875-45 45-45 45 20.1875 45 45-20.1875 45-45 45zm0 0" fill="#feef55"/><path d="m396 470c-24.8125 0-45-20.1875-45-45s20.1875-45 45-45 45 20.1875 45 45-20.1875 45-45 45zm0 0" fill="#68d31e"/><path d="m116 470c-24.8125 0-45-20.1875-45-45s20.1875-45 45-45 45 20.1875 45 45-20.1875 45-45 45zm0 0" fill="#78e0ea"/><path d="m301 425c0-24.8125-20.1875-45-45-45v90c24.8125 0 45-20.1875 45-45zm0 0" fill="#fedc00"/></svg>