<svg id="Capa_1" enable-background="new 0 0 512 512" height="512" viewBox="0 0 512 512" width="512" xmlns="http://www.w3.org/2000/svg"><g><path d="m384.532 127.468-1-20.21c-35.532-30.58-80.274-47.258-127.532-47.258v90c28.262 0 54.866 11.04 74.913 31.087l.001-.001-.001.001c20.047 20.046 31.087 46.651 31.087 74.913s-11.04 54.867-31.087 74.914c-5.858 5.858-5.858 15.355 0 21.213l42.406 42.406c2.929 2.929 6.768 4.394 10.607 4.394 3.838 0 7.678-1.465 10.606-4.393 37.059-37.058 57.468-86.257 57.468-138.534 0-47.257-16.678-91.999-47.257-127.531z" fill="#febf01"/><path d="m437.02 74.98c-48.353-48.351-112.64-74.98-181.02-74.98s-132.667 26.629-181.02 74.98c-48.351 48.352-74.98 112.64-74.98 181.02s26.629 132.668 74.98 181.02c48.353 48.351 112.64 74.98 181.02 74.98s132.667-26.629 181.02-74.98c48.351-48.352 74.98-112.64 74.98-181.02s-26.629-132.668-74.98-181.02z" fill="#dff8ff"/><path d="m437.02 74.98c-48.353-48.351-112.64-74.98-181.02-74.98v512c68.38 0 132.667-26.629 181.02-74.98 48.351-48.352 74.98-112.64 74.98-181.02s-26.629-132.668-74.98-181.02z" fill="#d8eaef"/><path d="m384.532 127.468-53.619 53.62c20.047 20.045 31.087 46.65 31.087 74.912s-11.04 54.867-31.087 74.914c-5.858 5.858-5.858 15.355 0 21.213l42.406 42.406c2.929 2.929 6.768 4.394 10.607 4.394 3.838 0 7.678-1.465 10.606-4.393 37.059-37.058 57.468-86.257 57.468-138.534 0-47.257-16.678-91.999-47.257-127.531z" fill="#455da0"/><path d="m150 256c0-28.262 11.04-54.867 31.087-74.914 5.858-5.858 5.858-15.355 0-21.213l-42.406-42.406c-5.856-5.857-15.354-5.858-21.213-.001-37.059 37.058-57.468 86.257-57.468 138.534s20.409 101.476 57.468 138.533c2.929 2.929 6.768 4.393 10.606 4.393 3.839 0 7.678-1.464 10.606-4.394l42.406-42.406c5.858-5.858 5.858-15.355 0-21.213-20.046-20.046-31.086-46.651-31.086-74.913z" fill="#c2e541"/><path d="m256 60c-52.277 0-101.476 20.409-138.532 57.467l63.619 63.619c20.047-20.046 46.651-31.086 74.913-31.086s54.866 11.04 74.913 31.087l53.619-53.619-1-20.21c-35.532-30.58-80.274-47.258-127.532-47.258z" fill="#ffda2d"/><path d="m256 60v90c28.262 0 54.866 11.04 74.913 31.087l53.619-53.619-1-20.21c-35.532-30.58-80.274-47.258-127.532-47.258z" fill="#febf01"/><path d="m256 422c-11.075 0-22.17-1.109-32.976-3.295-8.119-1.644-13.369-9.557-11.727-17.677 1.644-8.12 9.56-13.368 17.678-11.727 17.701 3.583 36.348 3.583 54.049 0 8.13-1.643 16.034 3.608 17.678 11.727 1.643 8.12-3.607 16.034-11.727 17.677-10.805 2.186-21.9 3.295-32.975 3.295z" fill="#4bb6ff"/><path d="m300.702 401.027c-1.643-8.119-9.548-13.37-17.678-11.727-8.851 1.792-17.938 2.687-27.024 2.687v30.013c11.075 0 22.17-1.109 32.976-3.295 8.119-1.644 13.369-9.558 11.726-17.678z" fill="#398ce9"/><path d="m275.39 215.398c-5.875-2.817-12.451-4.398-19.39-4.398-24.814 0-45 20.187-45 45 0 24.814 20.186 45 45 45s45-20.186 45-45c0-6.939-1.581-13.515-4.397-19.39z" fill="#4bb6ff"/><path d="m404.74 128.472c-3.247-3.774-6.648-7.447-10.207-11.005-3.559-3.559-7.23-6.96-11.005-10.209l-108.138 108.14c-5.875-2.817-12.451-4.398-19.39-4.398v90c24.814 0 45-20.186 45-45 0-6.939-1.581-13.515-4.397-19.39z" fill="#398ce9"/></g></svg>